<?xml version="1.0" standalone="no"?>
<!DOCTYPE svg PUBLIC "-//W3C//DTD SVG 1.1//EN" "http://www.w3.org/Graphics/SVG/1.1/DTD/svg11.dtd" >
<!--
2013-9-30: Created.
-->
<svg>
<metadata>
Created by iconfont
</metadata>
<defs>

<font id="iconfont" horiz-adv-x="1024" >
  <font-face
    font-family="iconfont"
    font-weight="500"
    font-stretch="normal"
    units-per-em="1024"
    ascent="896"
    descent="-128"
  />
    <missing-glyph />
    
    <glyph glyph-name="fenxiangbeijing" unicode="&#58912;" d="M831.99012 895.98784a191.99772 191.99772 0 0 1-191.99772-163.198062L309.116329 600.951344A191.99772 191.99772 0 0 1 191.99772 639.99088a191.99772 191.99772 0 0 1 0-383.99544 181.117849 181.117849 0 0 1 63.99924 12.159856l191.99772-170.237979A210.5575 210.5575 0 0 1 447.99468 63.99772a191.99772 191.99772 0 1 1 191.99772 191.99772 191.99772 191.99772 0 0 1-63.99924-11.519863L383.99544 416.633532a21.759742 21.759742 0 0 0 0 6.399924l332.156056 127.99848A188.157766 188.157766 0 0 1 831.99012 511.9924a191.99772 191.99772 0 0 1 0 383.99544z"  horiz-adv-x="1025" />

    
    <glyph glyph-name="fuzhi" unicode="&#58913;" d="M678.758927 164.573623a51.930909 51.930909 0 0 1 52.66233 51.930909V844.063971A51.930909 51.930909 0 0 1 678.758927 895.99488H51.930909A51.930909 51.930909 0 0 1 0 844.063971v-627.559439a51.930909 51.930909 0 0 1 51.930909-51.930909h626.828018zM971.32743 603.426377H804.563383v-454.212601a57.782279 57.782279 0 0 0-57.782279-57.782279H292.568503v-167.495468a51.930909 51.930909 0 0 1 52.66233-51.930909h626.828018a51.930909 51.930909 0 0 1 51.930909 51.930909V551.495468a51.930909 51.930909 0 0 1-52.66233 51.930909z"  horiz-adv-x="1024" />

    
    <glyph glyph-name="gengduoshezhi" unicode="&#58914;" d="M512 786.285714m-109.714286 0a109.714286 109.714286 0 1 1 219.428572 0 109.714286 109.714286 0 1 1-219.428572 0ZM512 384m-109.714286 0a109.714286 109.714286 0 1 1 219.428572 0 109.714286 109.714286 0 1 1-219.428572 0ZM512-18.285714m-109.714286 0a109.714286 109.714286 0 1 1 219.428572 0 109.714286 109.714286 0 1 1-219.428572 0Z"  horiz-adv-x="1024" />

    
    <glyph glyph-name="lajitong" unicode="&#58915;" d="M1024 676.571429h-219.428571V749.714286a146.285714 146.285714 0 0 1-146.285715 146.285714H365.714286a146.285714 146.285714 0 0 1-146.285715-146.285714v-73.142857H0v-146.285715h146.285714v-658.285714h731.428572V530.285714h146.285714zM365.714286 749.714286h292.571428v-73.142857H365.714286zM292.571429 18.285714V530.285714h146.285714v-512z m438.857142 0H585.142857V530.285714h146.285714z"  horiz-adv-x="1024" />

    
    <glyph glyph-name="jibenbujian" unicode="&#58916;" d="M587.921446 234.880918h-8.080344a95.494978 95.494978 0 0 1-57.296987 0A16.895265 16.895265 0 0 1 514.46377 234.880918V349.474892a36.728838 36.728838 0 0 1-36.728837 36.728838H360.937228a105.044476 105.044476 0 0 1 0 73.457676 109.451937 109.451937 0 0 1-207.150646 0 105.044476 105.044476 0 0 1 0-73.457676H40.661762a40.401722 40.401722 0 0 1-40.401722-40.401721V234.880918a102.106169 102.106169 0 0 0 36.728838 6.611191A110.186514 110.186514 0 0 0 147.175392 129.101865a100.637016 100.637016 0 0 0-11.018652-47.012912 108.71736 108.71736 0 0 0-99.167862-63.173601 102.106169 102.106169 0 0 0-36.728838 6.61119v-116.797704a6.611191 6.611191 0 0 1 0-3.672884 34.525108 34.525108 0 0 1 32.321378-32.321377H477.734933a36.728838 36.728838 0 0 1 36.728837 36.728838v116.063127a105.044476 105.044476 0 0 1 73.457676 0A109.451937 109.451937 0 0 1 587.921446 234.880918zM918.480987 602.169297a120.470588 120.470588 0 0 1-36.728838-6.611191V712.355811a36.728838 36.728838 0 0 1-36.728838 36.728837H728.225607a102.106169 102.106169 0 0 1 6.611191 36.728838 110.186514 110.186514 0 0 1-220.373028 0 120.470588 120.470588 0 0 1 6.611191-36.728838H407.950141a40.401722 40.401722 0 0 1-40.401722-40.401721v-113.124821A102.106169 102.106169 0 0 0 404.277257 602.169297 110.186514 110.186514 0 0 0 514.46377 491.982783a96.229555 96.229555 0 0 0-5.142037-32.321377h36.728838a41.136298 41.136298 0 0 0 41.870875-41.870875v-146.915352a141.038737 141.038737 0 0 0 64.642755-35.994261h192.45911a36.728838 36.728838 0 0 1 36.728838 36.728838V388.407461a120.470588 120.470588 0 0 1 36.728838-6.611191 110.186514 110.186514 0 0 1 0 220.373027z"  horiz-adv-x="1028" />

    
    <glyph glyph-name="renyuanguanli" unicode="&#58917;" d="M365.731788 310.843037a292.562025 292.562025 0 0 1 292.562024 292.562025 285.247974 285.247974 0 0 1-40.958683 146.281012A292.562025 292.562025 0 1 1 365.731788 310.843037zM736.554154 326.202543a230.392595 230.392595 0 0 1 0 460.053784h-11.702481A391.301708 391.301708 0 0 0 768.004572 603.405062a399.347164 399.347164 0 0 0-100.933899-266.231443 219.421519 219.421519 0 0 1 69.483481-10.971076zM538.343382 219.417404A212.838873 212.838873 0 0 1 512.0128 228.194265 266.231443 266.231443 0 0 1 438.872294 237.702531H292.591281a271.351278 271.351278 0 0 1-73.140506-9.508266 292.562025 292.562025 0 0 1-134.578531-73.140506A292.562025 292.562025 0 0 1 0.029257-54.859494a73.140506 73.140506 0 0 1 73.140506-73.140506h585.124049a73.140506 73.140506 0 0 1 73.140507 73.140506 219.421519 219.421519 0 0 1 0 38.033063 292.562025 292.562025 0 0 1-193.090937 236.243835zM792.872344 269.152949H680.235964a195.285152 195.285152 0 0 1-46.809924-5.119836 400.078569 400.078569 0 0 0 219.421519-282.322354h114.09919a57.049595 57.049595 0 0 1 56.318189 56.31819 231.855405 231.855405 0 0 1-230.392594 231.124z"  horiz-adv-x="1024" />

    
    <glyph glyph-name="jiaoseguanli" unicode="&#58918;" d="M365.728131 310.843037a292.562025 292.562025 0 0 1 146.281012 39.495874 300.60748 300.60748 0 0 1 59.975215 45.347113 37.301658 37.301658 0 0 1 21.210747 21.942152 26.330582 26.330582 0 0 0 0 6.582646A266.962848 266.962848 0 0 1 648.78189 530.264556 267.694253 267.694253 0 0 1 658.290156 603.405062a285.247974 285.247974 0 0 1-40.958684 146.281012A292.562025 292.562025 0 1 1 365.728131 310.843037zM627.571143 164.562025a273.545493 273.545493 0 0 1-62.900835 40.958683 286.710784 286.710784 0 0 1-26.330582 11.702481A212.838873 212.838873 0 0 1 512.009143 228.194265 209.913253 209.913253 0 0 1 449.108308 237.702531H281.616549a213.570278 213.570278 0 0 1-62.16943-9.508266 292.562025 292.562025 0 0 1-134.578532-73.140506A292.562025 292.562025 0 0 1 0.0256-54.859494a73.140506 73.140506 0 0 1 73.140506-73.140506h585.12405a73.140506 73.140506 0 0 1 73.140506 73.140506 219.421519 219.421519 0 0 1 0 38.033063A292.562025 292.562025 0 0 1 627.571143 164.562025zM940.61251 298.409151a35.838848 35.838848 0 0 0 33.644633 24.136367H1023.992687v73.140506h-49.735544a35.838848 35.838848 0 0 0-33.644633 24.136367 136.041342 136.041342 0 0 1-7.314051 18.285127 35.838848 35.838848 0 0 0 6.582646 40.958683l35.107443 35.107443-51.92976 51.92976-34.376038-35.838848a35.838848 35.838848 0 0 0-41.690088-6.582646L828.707535 530.264556a36.570253 36.570253 0 0 0-24.136367 35.838848v49.004139h-62.900835V603.405062a375.210797 375.210797 0 0 0-32.181823-152.132253 60.70662 60.70662 0 0 0 11.702481 5.851241 25.599177 25.599177 0 0 0 10.239671 5.119835 104.590924 104.590924 0 0 0 36.570253 6.582646 98.739683 98.739683 0 0 0 36.570253-6.582646l10.971076-4.38843a106.785139 106.785139 0 0 0 51.92976-51.198355 64.363645 64.363645 0 0 0 3.657025-10.971076 98.739683 98.739683 0 0 0 6.582645-36.570253 104.590924 104.590924 0 0 0-6.582645-36.570253 42.421494 42.421494 0 0 0-3.657025-10.239671 111.904974 111.904974 0 0 0-51.92976-51.929759 34.376038 34.376038 0 0 0-10.971076-4.38843 98.739683 98.739683 0 0 0-36.570253-6.582646 104.590924 104.590924 0 0 0-36.570253 6.582646 25.599177 25.599177 0 0 0-10.239671 4.38843A111.904974 111.904974 0 0 0 669.261232 310.843037l-4.388431 10.239671A104.590924 104.590924 0 0 0 658.290156 359.115771a38.764468 38.764468 0 0 0 0 9.508266 231.124 231.124 0 0 0-27.793393-32.181823 323.281037 323.281037 0 0 0-38.764468-32.181822 14.628101 14.628101 0 0 0 0-5.851241l7.314051-18.285126a36.570253 36.570253 0 0 0 0-21.210747 386.181873 386.181873 0 0 0 177.000025-155.789278H804.571168v49.735544a35.107443 35.107443 0 0 0 24.136367 33.644633l18.285127 8.045455a35.838848 35.838848 0 0 0 40.958683-7.31405l35.107443-35.107443 51.92976 51.929759-35.107443 33.644633a35.838848 35.838848 0 0 0-6.582646 40.958683 190.165316 190.165316 0 0 1 7.314051 19.747937z"  horiz-adv-x="1024" />

    
    <glyph glyph-name="suoxiao" unicode="&#58919;" d="M512 896a512 512 0 1 1 512-512 512 512 0 0 1-512 512z m292.571429-585.142857H219.428571V457.142857h585.142858z"  horiz-adv-x="1024" />

    
    <glyph glyph-name="wenjianjia" unicode="&#58920;" d="M1145.560315 650.52279H0V814.174263a81.825737 81.825737 0 0 0 81.825737 81.825737h286.390078l163.651474-163.651474H1063.734578a81.825737 81.825737 0 0 0 81.825737-81.825736zM0 568.697053m81.825737 0l981.908841 0q81.825737 0 81.825737-81.825737l0-490.95442q0-81.825737-81.825737-81.825737l-981.908841 0q-81.825737 0-81.825737 81.825737l0 490.95442q0 81.825737 81.825737 81.825737Z"  horiz-adv-x="1194" />

    
    <glyph glyph-name="xiala" unicode="&#58921;" d="M2048 896L1024-128 0 896h2048z"  horiz-adv-x="2048" />

    
    <glyph glyph-name="yulan" unicode="&#58922;" d="M1694.74304 576A1344 1344 0 0 1 896.02304 896 1344 1344 0 0 1 97.30304 576a238.08 238.08 0 0 1 0-384A1344 1344 0 0 1 896.02304-128a1344 1344 0 0 1 798.72 320 238.08 238.08 0 0 1 0 384zM896.02304 0a384 384 0 1 0 384 384 384 384 0 0 0-384-384zM896.02304 384m-256 0a256 256 0 1 1 512 0 256 256 0 1 1-512 0Z"  horiz-adv-x="1792" />

    
    <glyph glyph-name="xiangmubujian" unicode="&#58923;" d="M887.128713 896h-591.419142L0 384l295.709571-512h591.419142L1182.838284 384zM591.419142 130.534653a253.465347 253.465347 0 1 0 253.465346 253.465347 253.465347 253.465347 0 0 0-253.465346-253.465347z"  horiz-adv-x="1182" />

    
    <glyph glyph-name="yulanbeijing" unicode="&#58924;" d="M1549.312 576.512C1381.376 721.92 1116.16 896 819.2 896S257.024 721.92 89.088 576.512a252.928 252.928 0 0 1 0-385.024C257.024 46.08 522.24-128 819.2-128s562.176 174.08 730.112 319.488a252.928 252.928 0 0 1 0 385.024z"  horiz-adv-x="1638" />

    
    <glyph glyph-name="zhongyingqiehuan" unicode="&#58925;" d="M292.571429 530.285714h146.285714v-219.428571H292.571429zM950.857143 896H73.142857a73.142857 73.142857 0 0 1-73.142857-73.142857v-877.714286a73.142857 73.142857 0 0 1 73.142857-73.142857h877.714286a73.142857 73.142857 0 0 1 73.142857 73.142857V822.857143a73.142857 73.142857 0 0 1-73.142857 73.142857z m-146.285714-658.285714H585.142857v-219.428572H438.857143V237.714286H219.428571V603.428571h219.428572V749.714286h146.285714v-146.285715h219.428572zM585.142857 530.285714h146.285714v-219.428571H585.142857z"  horiz-adv-x="1024" />

    
    <glyph glyph-name="zhuxiao" unicode="&#58926;" d="M438.643403 896h146.200083v-365.500207H438.643403zM657.943527 874.069988v-154.241088a365.500207 365.500207 0 1 0-292.400166 0V874.069988a511.70029 511.70029 0 1 1 292.400166 0z"  horiz-adv-x="1024" />

    
    <glyph glyph-name="zihao" unicode="&#58927;" d="M0 298.666667h170.666667v-426.666667h85.333333V298.666667h170.666667V384H0v-85.333333zM168.96 896v-170.666667H597.333333v-853.333333h170.666667V725.333333h424.106667V896H168.96z"  horiz-adv-x="1192" />

    
    <glyph glyph-name="baocun" unicode="&#58928;" d="M1002.788571 697.782857L825.782857 874.788571a73.142857 73.142857 0 0 1-51.2 21.211429H73.142857a73.142857 73.142857 0 0 1-73.142857-73.142857v-877.714286a73.142857 73.142857 0 0 1 73.142857-73.142857h877.714286a73.142857 73.142857 0 0 1 73.142857 73.142857V646.582857a73.142857 73.142857 0 0 1-21.211429 51.2zM731.428571 522.24a65.097143 65.097143 0 0 0-65.097142-65.097143H211.382857A65.097143 65.097143 0 0 0 146.285714 522.24V684.617143A65.097143 65.097143 0 0 0 211.382857 749.714286h454.948572a65.097143 65.097143 0 0 0 65.097142-65.097143zM585.142857 676.571429h73.142857v-146.285715H585.142857z"  horiz-adv-x="1024" />

    
    <glyph glyph-name="baocunbeijing" unicode="&#58929;" d="M1002.88 697.6L825.6 874.88a74.24 74.24 0 0 1-51.2 21.12h-704A72.96 72.96 0 0 1 0 823.04v-878.08A72.96 72.96 0 0 1 72.96-128h878.08A72.96 72.96 0 0 1 1024-55.04V646.4a69.76 69.76 0 0 1-21.12 51.2z"  horiz-adv-x="1024" />

    
    <glyph glyph-name="beijing" unicode="&#58930;" d="M512 384m-512 0a512 512 0 1 1 1024 0 512 512 0 1 1-1024 0Z"  horiz-adv-x="1024" />

    
    <glyph glyph-name="bianji" unicode="&#58931;" d="M248.413054 327.582375l413.680497 413.753624 206.803685-206.876812-413.680497-413.680497zM0 18.254374h1023.780618v-146.254374H0zM713.575091 792.52503l103.401843 103.47497 206.876812-206.876812-103.401843-103.401843zM204.024852 310.763122v-219.381561h219.381561l-219.381561 219.381561z"  horiz-adv-x="1024" />

    
    <glyph glyph-name="bianji1" unicode="&#58932;" d="M950.857143 896H73.142857a73.142857 73.142857 0 0 1-73.142857-73.142857v-877.714286a73.142857 73.142857 0 0 1 73.142857-73.142857h877.714286a73.142857 73.142857 0 0 1 73.142857 73.142857V822.857143a73.142857 73.142857 0 0 1-73.142857 73.142857zM129.462857 8.777143v219.428571l219.428572-219.428571z m250.88 29.257143L173.348571 244.297143 585.142857 658.285714l206.994286-206.994285z m465.188572 465.188571L638.537143 710.217143l103.862857 103.131428L950.857143 603.428571z"  horiz-adv-x="1024" />

    
    <glyph glyph-name="fanhui" unicode="&#58933;" d="M1024 457.142857L512 896 0 457.142857h82.651429v-512a73.142857 73.142857 0 0 1 73.142857-73.142857h219.428571V310.857143h292.571429v-438.857143h219.428571a73.142857 73.142857 0 0 1 73.142857 73.142857V457.142857z"  horiz-adv-x="1024" />

    
    <glyph glyph-name="fangdajing" unicode="&#58934;" d="M1024.000065-24.894642L670.809372 329.027295a365.621836 365.621836 0 1 1-103.836601-103.836602L920.894708-128zM146.50766 530.119304a219.373101 219.373101 0 1 0 219.373101-219.373101 219.373101 219.373101 0 0 0-219.373101 219.373101z"  horiz-adv-x="1024" />

    
    <glyph glyph-name="bujian" unicode="&#58935;" d="M877.710524 420.573466a146.285087 146.285087 0 0 1-73.142544-20.479912v219.427631a57.051184 57.051184 0 0 1-57.782609 57.051184h-219.427631a139.702258 139.702258 0 0 1 21.211338 73.142544 146.285087 146.285087 0 0 1-292.570175 0 146.285087 146.285087 0 0 1 20.479912-73.142544H62.902588a63.634013 63.634013 0 0 1-62.902588-63.634013v-212.844802a139.702258 139.702258 0 0 0 73.142544 20.479912 146.285087 146.285087 0 0 0 0-292.570175 139.702258 139.702258 0 0 0-73.142544 20.479913v-219.427631a57.051184 57.051184 0 0 1 57.051184-57.051184h689.734187a57.051184 57.051184 0 0 1 57.782609 57.051184v219.427631a146.285087 146.285087 0 1 1 73.142544 272.090262z"  horiz-adv-x="1025" />

    
    <glyph glyph-name="fenxiang" unicode="&#58936;" d="M878.45888 896a146.285714 146.285714 0 0 1-146.285714-146.285714 90.697143 90.697143 0 0 1 0-19.748572L263.327451 544.914286A146.285714 146.285714 0 1 1 147.030309 310.857143a146.285714 146.285714 0 0 1 86.308571 29.257143l292.571429-257.462857A146.285714 146.285714 0 0 1 512.744594 18.285714a146.285714 146.285714 0 1 1 146.285715 146.285715 146.285714 146.285714 0 0 1-83.382858-26.331429l-292.571428 258.194286A150.674286 150.674286 0 0 1 293.316023 457.142857a181.394286 181.394286 0 0 1 0 19.748572l468.114286 185.051428A146.285714 146.285714 0 1 1 878.45888 896z"  horiz-adv-x="1024" />

    
    <glyph glyph-name="fangda" unicode="&#58937;" d="M512 896a512 512 0 1 1 512-512 512 512 0 0 1-512 512z m292.571429-585.142857H585.142857v-219.428572H438.857143V310.857143H219.428571V457.142857h219.428572V676.571429h146.285714v-219.428572h219.428572z"  horiz-adv-x="1024" />

    
    <glyph glyph-name="dengbi" unicode="&#58938;" d="M768-128H512a512 512 0 0 0 0 1024h256v-256H512a256 256 0 0 1 0-512h256zM1280-128H1024V128h256a256 256 0 0 1 0 512H1024V896h256a512 512 0 0 0 0-1024zM640 512h512v-256H640z"  horiz-adv-x="1792" />

    
    <glyph glyph-name="shezhi" unicode="&#58939;" d="M1024 310.857143V457.142857h-98.742857a73.142857 73.142857 0 0 0-68.022857 48.274286 310.857143 310.857143 0 0 1-15.36 35.84 73.142857 73.142857 0 0 0 13.897143 82.651428l73.142857 73.142858-106.788572 100.205714-73.142857-69.485714a73.142857 73.142857 0 0 0-82.651428-13.897143 321.828571 321.828571 0 0 1-36.571429 15.36A73.142857 73.142857 0 0 0 585.142857 797.257143V896H438.857143v-98.742857a73.142857 73.142857 0 0 0-48.274286-68.022857 321.828571 321.828571 0 0 1-36.571428-15.36 73.142857 73.142857 0 0 0-82.651429 13.897143l-73.142857 69.485714-100.205714-103.131429 73.142857-73.142857a73.142857 73.142857 0 0 0 13.897143-82.651428 310.857143 310.857143 0 0 1-15.36-35.84 73.142857 73.142857 0 0 0-70.948572-45.348572H0v-146.285714h98.742857a73.142857 73.142857 0 0 0 68.022857-48.274286 310.857143 310.857143 0 0 1 15.36-35.84 73.142857 73.142857 0 0 0-13.897143-82.651428l-73.142857-73.142858 103.862857-103.862857 73.142858 73.142857a73.142857 73.142857 0 0 0 82.651428 13.897143 310.857143 310.857143 0 0 1 35.84-15.36 73.142857 73.142857 0 0 0 48.274286-68.022857V-128h146.285714v98.742857a73.142857 73.142857 0 0 0 48.274286 68.022857 310.857143 310.857143 0 0 1 35.84 15.36 73.142857 73.142857 0 0 0 82.651428-13.897143l73.142858-73.142857 103.862857 103.862857-73.142857 73.142858a73.142857 73.142857 0 0 0-13.897143 82.651428 310.857143 310.857143 0 0 1 15.36 35.84 73.142857 73.142857 0 0 0 68.022857 48.274286z m-313.782857-21.211429a223.817143 223.817143 0 0 0-103.862857-103.862857 108.251429 108.251429 0 0 0-21.211429-8.777143 219.428571 219.428571 0 0 0-146.285714 0 108.251429 108.251429 0 0 0-21.211429 8.777143 223.817143 223.817143 0 0 0-103.862857 103.862857A182.125714 182.125714 0 0 0 305.737143 310.857143a209.92 209.92 0 0 0 0 146.285714c0 7.314286 5.12 13.897143 8.045714 21.211429A219.428571 219.428571 0 0 0 417.645714 581.485714 108.251429 108.251429 0 0 0 438.857143 590.262857a209.92 209.92 0 0 0 146.285714 0 108.251429 108.251429 0 0 0 21.211429-8.777143 219.428571 219.428571 0 0 0 103.862857-103.131428c0-7.314286 5.851429-13.897143 8.045714-21.211429a209.92 209.92 0 0 0 0-146.285714 182.125714 182.125714 0 0 0-8.045714-21.211429z"  horiz-adv-x="1024" />

    
    <glyph glyph-name="wenjian" unicode="&#58940;" d="M78.769231 896h945.230769a78.769231 78.769231 0 0 0 78.769231-78.769231v-78.769231H0V817.230769a78.769231 78.769231 0 0 0 78.769231 78.769231zM0 659.692308v-708.923077a78.769231 78.769231 0 0 1 78.769231-78.769231h945.230769a78.769231 78.769231 0 0 1 78.769231 78.769231V659.692308z m787.692308-157.538462H315.076923V580.923077h472.615385z"  horiz-adv-x="1102" />

    
    <glyph glyph-name="suo" unicode="&#58941;" d="M950.991726 530.285714h-219.428572V676.571429a219.428571 219.428571 0 0 1-438.857143 0v-146.285715H73.27744a78.262857 78.262857 0 0 1-73.142857-82.651428v-493.714286A78.262857 78.262857 0 0 1 73.27744-128h877.714286a78.262857 78.262857 0 0 1 73.142857 81.92V447.634286A78.262857 78.262857 0 0 1 950.991726 530.285714zM438.991726 676.571429a73.142857 73.142857 0 0 0 146.285714 0v-146.285715H438.991726z m135.314285-658.285715H438.991726v93.622857a146.285714 146.285714 0 0 0 0 251.611429A139.702857 139.702857 0 0 0 512.134583 384a137.508571 137.508571 0 0 0 73.142857-20.48A146.285714 146.285714 0 0 0 658.420297 237.714286a146.285714 146.285714 0 0 0-73.142857-126.537143V18.285714z"  horiz-adv-x="1024" />

    
    <glyph glyph-name="qiye" unicode="&#58942;" d="M877.714286-54.857143V237.714286a73.142857 73.142857 0 0 1-73.142857 73.142857h-73.142858a73.142857 73.142857 0 0 1-73.142857-73.142857v-292.571429H585.142857V822.857143a73.142857 73.142857 0 0 1-73.142857 73.142857H146.285714a73.142857 73.142857 0 0 1-73.142857-73.142857v-877.714286H0v-73.142857h1024v73.142857z m-146.285715 292.571429h73.142858v-73.142857h-73.142858z m0-146.285715h73.142858v-73.142857h-73.142858zM219.428571 822.857143h219.428572v-146.285714H219.428571z m0-219.428572h219.428572v-146.285714H219.428571z m0-219.428571h219.428572v-146.285714H219.428571z m0-219.428571h219.428572v-146.285715H219.428571z"  horiz-adv-x="1024" />

    
    <glyph glyph-name="yonghu" unicode="&#58943;" d="M773.451337 164.571429a273.554286 273.554286 0 0 1-62.902857 40.96 286.72 286.72 0 0 1-26.331429 11.702857A212.845714 212.845714 0 0 1 657.885623 228.205714 209.92 209.92 0 0 1 594.982766 237.714286H427.485623a213.577143 213.577143 0 0 1-62.171429-9.508572 292.571429 292.571429 0 0 1-134.582857-73.142857A292.571429 292.571429 0 0 1 145.885623-54.857143a73.142857 73.142857 0 0 1 73.142857-73.142857h585.142857a73.142857 73.142857 0 0 1 73.142857 73.142857 219.428571 219.428571 0 0 1 0 38.034286A292.571429 292.571429 0 0 1 773.451337 164.571429zM511.599909 603.428571m-292.571429 0a292.571429 292.571429 0 1 1 585.142857 0 292.571429 292.571429 0 1 1-585.142857 0Z"  horiz-adv-x="1024" />

    
    <glyph glyph-name="huifu" unicode="&#58944;" d="M497.515934 37.924349a331.097334 331.097334 0 0 0 0 662.194668 326.711939 326.711939 0 0 0 180.5321-53.355641L538.446289 507.16163 1024.494251 409.952038 927.284659 896l-130.830956-130.830955A491.164257 491.164257 0 0 1 497.515934 866.033133a497.01145 497.01145 0 1 1 347.908015-851.497558L732.134574 132.941244a329.635535 329.635535 0 0 0-234.61864-95.016895z"  horiz-adv-x="1025" />

    


  </font>
</defs>
</svg>
